<svg width="480" height="600" viewBox="0 0 480 600" fill="none" xmlns="http://www.w3.org/2000/svg">
  <rect width="480" height="600" rx="36" fill="#FFFFFF"/>
  <rect x="48" y="52" width="120" height="18" rx="9" fill="#3B82F6" fill-opacity="0.2"/>
  <rect x="48" y="92" width="256" height="28" rx="14" fill="#111827" fill-opacity="0.85"/>
  <rect x="48" y="136" width="320" height="14" rx="7" fill="#111827" fill-opacity="0.14"/>
  <rect x="48" y="160" width="280" height="14" rx="7" fill="#111827" fill-opacity="0.12"/>
  <rect x="48" y="200" width="384" height="24" rx="12" fill="#3B82F6" fill-opacity="0.16"/>
  <rect x="48" y="242" width="360" height="12" rx="6" fill="#111827" fill-opacity="0.18"/>
  <rect x="48" y="266" width="300" height="12" rx="6" fill="#111827" fill-opacity="0.14"/>
  <rect x="48" y="312" width="384" height="24" rx="12" fill="#3B82F6" fill-opacity="0.16"/>
  <rect x="48" y="354" width="360" height="12" rx="6" fill="#111827" fill-opacity="0.18"/>
  <rect x="48" y="378" width="300" height="12" rx="6" fill="#111827" fill-opacity="0.14"/>
  <rect x="48" y="424" width="384" height="24" rx="12" fill="#3B82F6" fill-opacity="0.16"/>
  <rect x="48" y="466" width="360" height="12" rx="6" fill="#111827" fill-opacity="0.18"/>
  <rect x="48" y="490" width="300" height="12" rx="6" fill="#111827" fill-opacity="0.14"/>
  <rect x="48" y="530" width="200" height="14" rx="7" fill="#111827" fill-opacity="0.1"/>
</svg>
