<svg width="480" height="600" viewBox="0 0 480 600" fill="none" xmlns="http://www.w3.org/2000/svg">
  <rect width="480" height="600" rx="36" fill="#FFFFFF"/>
  <rect x="48" y="52" width="160" height="20" rx="10" fill="#FACC15" fill-opacity="0.28"/>
  <rect x="48" y="96" width="220" height="26" rx="13" fill="#111827" fill-opacity="0.85"/>
  <rect x="48" y="138" width="200" height="12" rx="6" fill="#111827" fill-opacity="0.12"/>
  <rect x="48" y="178" width="384" height="20" rx="10" fill="#3B82F6" fill-opacity="0.18"/>
  <rect x="48" y="210" width="384" height="12" rx="6" fill="#111827" fill-opacity="0.18"/>
  <rect x="48" y="234" width="320" height="12" rx="6" fill="#111827" fill-opacity="0.14"/>
  <rect x="48" y="278" width="384" height="20" rx="10" fill="#3B82F6" fill-opacity="0.18"/>
  <rect x="48" y="310" width="384" height="12" rx="6" fill="#111827" fill-opacity="0.18"/>
  <rect x="48" y="334" width="320" height="12" rx="6" fill="#111827" fill-opacity="0.14"/>
  <rect x="48" y="378" width="384" height="20" rx="10" fill="#3B82F6" fill-opacity="0.18"/>
  <rect x="48" y="410" width="384" height="12" rx="6" fill="#111827" fill-opacity="0.18"/>
  <rect x="48" y="434" width="320" height="12" rx="6" fill="#111827" fill-opacity="0.14"/>
  <rect x="48" y="478" width="244" height="12" rx="6" fill="#111827" fill-opacity="0.12"/>
  <rect x="48" y="506" width="280" height="12" rx="6" fill="#111827" fill-opacity="0.12"/>
  <rect x="48" y="540" width="220" height="14" rx="7" fill="#111827" fill-opacity="0.1"/>
</svg>
