<svg width="480" height="600" viewBox="0 0 480 600" fill="none" xmlns="http://www.w3.org/2000/svg">
  <rect width="480" height="600" rx="36" fill="#FFFFFF"/>
  <rect x="48" y="48" width="384" height="44" rx="22" fill="#3B82F6" fill-opacity="0.18"/>
  <rect x="72" y="64" width="180" height="12" rx="6" fill="#111827" fill-opacity="0.26"/>
  <rect x="48" y="120" width="220" height="28" rx="14" fill="#111827" fill-opacity="0.85"/>
  <rect x="48" y="162" width="320" height="12" rx="6" fill="#111827" fill-opacity="0.18"/>
  <rect x="48" y="186" width="280" height="12" rx="6" fill="#111827" fill-opacity="0.14"/>
  <rect x="48" y="226" width="384" height="24" rx="12" fill="#FACC15" fill-opacity="0.22"/>
  <rect x="48" y="268" width="352" height="12" rx="6" fill="#111827" fill-opacity="0.18"/>
  <rect x="48" y="292" width="300" height="12" rx="6" fill="#111827" fill-opacity="0.14"/>
  <rect x="48" y="332" width="384" height="24" rx="12" fill="#3B82F6" fill-opacity="0.16"/>
  <rect x="48" y="374" width="352" height="12" rx="6" fill="#111827" fill-opacity="0.18"/>
  <rect x="48" y="398" width="300" height="12" rx="6" fill="#111827" fill-opacity="0.14"/>
  <rect x="48" y="438" width="384" height="24" rx="12" fill="#3B82F6" fill-opacity="0.16"/>
  <rect x="48" y="480" width="352" height="12" rx="6" fill="#111827" fill-opacity="0.18"/>
  <rect x="48" y="504" width="300" height="12" rx="6" fill="#111827" fill-opacity="0.14"/>
  <rect x="48" y="544" width="200" height="16" rx="8" fill="#111827" fill-opacity="0.1"/>
</svg>
