<svg width="260" height="360" viewBox="0 0 260 360" fill="none" xmlns="http://www.w3.org/2000/svg">
  <rect width="260" height="360" rx="28" fill="#FFFFFF"/>
  <rect x="24" y="28" width="92" height="12" rx="6" fill="#3B82F6" fill-opacity="0.18"/>
  <rect x="24" y="54" width="152" height="16" rx="8" fill="#111827" fill-opacity="0.85"/>
  <rect x="24" y="82" width="208" height="12" rx="6" fill="#111827" fill-opacity="0.2"/>
  <rect x="24" y="100" width="160" height="12" rx="6" fill="#111827" fill-opacity="0.15"/>
  <rect x="24" y="126" width="212" height="18" rx="9" fill="#3B82F6" fill-opacity="0.12"/>
  <rect x="24" y="156" width="196" height="10" rx="5" fill="#111827" fill-opacity="0.16"/>
  <rect x="24" y="174" width="180" height="10" rx="5" fill="#111827" fill-opacity="0.14"/>
  <rect x="24" y="198" width="212" height="18" rx="9" fill="#3B82F6" fill-opacity="0.12"/>
  <rect x="24" y="228" width="196" height="10" rx="5" fill="#111827" fill-opacity="0.16"/>
  <rect x="24" y="246" width="180" height="10" rx="5" fill="#111827" fill-opacity="0.14"/>
  <rect x="24" y="270" width="212" height="18" rx="9" fill="#3B82F6" fill-opacity="0.12"/>
  <rect x="24" y="300" width="196" height="10" rx="5" fill="#111827" fill-opacity="0.16"/>
  <rect x="24" y="318" width="180" height="10" rx="5" fill="#111827" fill-opacity="0.14"/>
  <rect x="196" y="26" width="40" height="40" rx="12" fill="#FACC15" fill-opacity="0.35"/>
  <rect x="24" y="342" width="120" height="8" rx="4" fill="#111827" fill-opacity="0.08"/>
</svg>
